<?xml version="1.0" encoding="UTF-8"?>
<!-- Generator: Adobe Illustrator 20.1.0, SVG Export Plug-In . SVG Version: 6.00 Build 0)  -->
<svg version="1.1" id="Layer_1" xmlns="http://www.w3.org/2000/svg" xmlns:xlink="http://www.w3.org/1999/xlink" x="0px" y="0px" viewBox="0 0 1430 10" style="enable-background:new 0 0 1430 10;" xml:space="preserve">
<style type="text/css">
	.st0{fill:none;stroke:#B4ADA0;stroke-miterlimit:10;}
</style>
<path class="st0" d="M0,0.5c4.9,0,4.9,4,9.8,4s4.9-4,9.8-4s4.9,4,9.9,4c4.9,0,4.9-4,9.8-4s4.9,4,9.8,4s4.9-4,9.8-4s4.9,4,9.8,4  s4.9-4,9.8-4c4.9,0,4.9,4,9.8,4s4.9-4,9.9-4c4.9,0,4.9,4,9.9,4c4.9,0,4.9-4,9.8-4s4.9,4,9.8,4c4.9,0,4.9-4,9.8-4c4.9,0,4.9,4,9.8,4  c4.9,0,4.9-4,9.9-4c4.9,0,4.9,4,9.9,4c4.9,0,4.9-4,9.8-4s4.9,4,9.8,4c4.9,0,4.9-4,9.8-4c4.9,0,4.9,4,9.9,4c4.9,0,4.9-4,9.9-4  c4.9,0,4.9,4,9.8,4c4.9,0,4.9-4,9.8-4c4.9,0,4.9,4,9.9,4c4.9,0,4.9-4,9.9-4c4.9,0,4.9,4,9.9,4c4.9,0,4.9-4,9.8-4c4.9,0,4.9,4,9.9,4  c4.9,0,4.9-4,9.9-4c4.9,0,4.9,4,9.9,4c4.9,0,4.9-4,9.9-4c4.9,0,4.9,4,9.9,4c4.9,0,4.9-4,9.9-4c4.9,0,4.9,4,9.9,4c4.9,0,4.9-4,9.9-4  c4.9,0,4.9,4,9.9,4c4.9,0,4.9-4,9.9-4c4.9,0,4.9,4,9.9,4c4.9,0,4.9-4,9.9-4c4.9,0,4.9,4,9.9,4c4.9,0,4.9-4,9.9-4c4.9,0,4.9,4,9.9,4  c4.9,0,4.9-4,9.9-4c4.9,0,4.9,4,9.9,4c4.9,0,4.9-4,9.9-4c4.9,0,4.9,4,9.9,4c4.9,0,4.9-4,9.9-4c4.9,0,4.9,4,9.9,4c4.9,0,4.9-4,9.9-4  c4.9,0,4.9,4,9.9,4c4.9,0,4.9-4,9.8-4c4.9,0,4.9,4,9.9,4c4.9,0,4.9-4,9.9-4c4.9,0,4.9,4,9.9,4c4.9,0,4.9-4,9.9-4c4.9,0,4.9,4,9.9,4  c4.9,0,4.9-4,9.9-4c4.9,0,4.9,4,9.9,4c4.9,0,4.9-4,9.9-4c4.9,0,4.9,4,9.9,4c4.9,0,4.9-4,9.9-4c4.9,0,4.9,4,9.9,4c4.9,0,4.9-4,9.9-4  c4.9,0,4.9,4,9.9,4c4.9,0,4.9-4,9.9-4c4.9,0,4.9,4,9.9,4c4.9,0,4.9-4,9.9-4c4.9,0,4.9,4,9.9,4c4.9,0,4.9-4,9.9-4c4.9,0,4.9,4,9.9,4  c4.9,0,4.9-4,9.9-4s4.9,4,9.9,4"/>
<path class="st0" d="M721,4.5c4.9,0,4.9-4,9.8-4c4.9,0,4.9,4,9.9,4c4.9,0,4.9-4,9.8-4s4.9,4,9.8,4c4.9,0,4.9-4,9.8-4  c4.9,0,4.9,4,9.8,4c4.9,0,4.9-4,9.8-4c4.9,0,4.9,4,9.8,4s4.9-4,9.9-4c4.9,0,4.9,4,9.9,4c4.9,0,4.9-4,9.8-4c4.9,0,4.9,4,9.8,4  c4.9,0,4.9-4,9.8-4s4.9,4,9.8,4c4.9,0,4.9-4,9.9-4c4.9,0,4.9,4,9.9,4c4.9,0,4.9-4,9.8-4c4.9,0,4.9,4,9.8,4c4.9,0,4.9-4,9.8-4  s4.9,4,9.9,4c4.9,0,4.9-4,9.9-4c4.9,0,4.9,4,9.8,4c4.9,0,4.9-4,9.8-4c4.9,0,4.9,4,9.9,4c4.9,0,4.9-4,9.9-4c4.9,0,4.9,4,9.9,4  c4.9,0,4.9-4,9.8-4c4.9,0,4.9,4,9.9,4c4.9,0,4.9-4,9.9-4c4.9,0,4.9,4,9.9,4c4.9,0,4.9-4,9.9-4c4.9,0,4.9,4,9.9,4c4.9,0,4.9-4,9.9-4  c4.9,0,4.9,4,9.9,4c4.9,0,4.9-4,9.9-4c4.9,0,4.9,4,9.9,4c4.9,0,4.9-4,9.9-4c4.9,0,4.9,4,9.9,4c4.9,0,4.9-4,9.9-4c4.9,0,4.9,4,9.9,4  c4.9,0,4.9-4,9.9-4c4.9,0,4.9,4,9.9,4c4.9,0,4.9-4,9.9-4c4.9,0,4.9,4,9.9,4c4.9,0,4.9-4,9.9-4c4.9,0,4.9,4,9.9,4c4.9,0,4.9-4,9.9-4  c4.9,0,4.9,4,9.9,4c4.9,0,4.9-4,9.9-4c4.9,0,4.9,4,9.9,4c4.9,0,4.9-4,9.8-4s4.9,4,9.9,4c4.9,0,4.9-4,9.9-4c4.9,0,4.9,4,9.9,4  c4.9,0,4.9-4,9.9-4c4.9,0,4.9,4,9.9,4c4.9,0,4.9-4,9.9-4c4.9,0,4.9,4,9.9,4c4.9,0,4.9-4,9.9-4c4.9,0,4.9,4,9.9,4c4.9,0,4.9-4,9.9-4  c4.9,0,4.9,4,9.9,4c4.9,0,4.9-4,9.9-4c4.9,0,4.9,4,9.9,4c4.9,0,4.9-4,9.9-4c4.9,0,4.9,4,9.9,4c4.9,0,4.9-4,9.9-4c4.9,0,4.9,4,9.9,4  c4.9,0,4.9-4,9.9-4c4.9,0,4.9,4,9.9,4c4.9,0,4.9-4,9.9-4s4.9,4,9.9,4"/>
<path class="st0" d="M0,5.5c4.9,0,4.9,4,9.8,4s4.9-4,9.8-4s4.9,4,9.9,4c4.9,0,4.9-4,9.8-4s4.9,4,9.8,4s4.9-4,9.8-4s4.9,4,9.8,4  s4.9-4,9.8-4c4.9,0,4.9,4,9.8,4s4.9-4,9.9-4c4.9,0,4.9,4,9.9,4c4.9,0,4.9-4,9.8-4s4.9,4,9.8,4c4.9,0,4.9-4,9.8-4c4.9,0,4.9,4,9.8,4  c4.9,0,4.9-4,9.9-4c4.9,0,4.9,4,9.9,4c4.9,0,4.9-4,9.8-4s4.9,4,9.8,4c4.9,0,4.9-4,9.8-4c4.9,0,4.9,4,9.9,4c4.9,0,4.9-4,9.9-4  c4.9,0,4.9,4,9.8,4c4.9,0,4.9-4,9.8-4c4.9,0,4.9,4,9.9,4c4.9,0,4.9-4,9.9-4c4.9,0,4.9,4,9.9,4c4.9,0,4.9-4,9.8-4c4.9,0,4.9,4,9.9,4  c4.9,0,4.9-4,9.9-4c4.9,0,4.9,4,9.9,4c4.9,0,4.9-4,9.9-4c4.9,0,4.9,4,9.9,4c4.9,0,4.9-4,9.9-4c4.9,0,4.9,4,9.9,4c4.9,0,4.9-4,9.9-4  c4.9,0,4.9,4,9.9,4c4.9,0,4.9-4,9.9-4c4.9,0,4.9,4,9.9,4c4.9,0,4.9-4,9.9-4c4.9,0,4.9,4,9.9,4c4.9,0,4.9-4,9.9-4c4.9,0,4.9,4,9.9,4  c4.9,0,4.9-4,9.9-4c4.9,0,4.9,4,9.9,4c4.9,0,4.9-4,9.9-4c4.9,0,4.9,4,9.9,4c4.9,0,4.9-4,9.9-4c4.9,0,4.9,4,9.9,4c4.9,0,4.9-4,9.9-4  c4.9,0,4.9,4,9.9,4c4.9,0,4.9-4,9.8-4c4.9,0,4.9,4,9.9,4c4.9,0,4.9-4,9.9-4c4.9,0,4.9,4,9.9,4c4.9,0,4.9-4,9.9-4c4.9,0,4.9,4,9.9,4  c4.9,0,4.9-4,9.9-4c4.9,0,4.9,4,9.9,4c4.9,0,4.9-4,9.9-4c4.9,0,4.9,4,9.9,4c4.9,0,4.9-4,9.9-4c4.9,0,4.9,4,9.9,4c4.9,0,4.9-4,9.9-4  c4.9,0,4.9,4,9.9,4c4.9,0,4.9-4,9.9-4c4.9,0,4.9,4,9.9,4c4.9,0,4.9-4,9.9-4c4.9,0,4.9,4,9.9,4c4.9,0,4.9-4,9.9-4c4.9,0,4.9,4,9.9,4  c4.9,0,4.9-4,9.9-4s4.9,4,9.9,4"/>
<path class="st0" d="M721,9.5c4.9,0,4.9-4,9.8-4c4.9,0,4.9,4,9.9,4c4.9,0,4.9-4,9.8-4s4.9,4,9.8,4c4.9,0,4.9-4,9.8-4  c4.9,0,4.9,4,9.8,4c4.9,0,4.9-4,9.8-4c4.9,0,4.9,4,9.8,4s4.9-4,9.9-4c4.9,0,4.9,4,9.9,4c4.9,0,4.9-4,9.8-4c4.9,0,4.9,4,9.8,4  c4.9,0,4.9-4,9.8-4s4.9,4,9.8,4c4.9,0,4.9-4,9.9-4c4.9,0,4.9,4,9.9,4c4.9,0,4.9-4,9.8-4c4.9,0,4.9,4,9.8,4c4.9,0,4.9-4,9.8-4  s4.9,4,9.9,4c4.9,0,4.9-4,9.9-4c4.9,0,4.9,4,9.8,4c4.9,0,4.9-4,9.8-4c4.9,0,4.9,4,9.9,4c4.9,0,4.9-4,9.9-4c4.9,0,4.9,4,9.9,4  c4.9,0,4.9-4,9.8-4c4.9,0,4.9,4,9.9,4c4.9,0,4.9-4,9.9-4c4.9,0,4.9,4,9.9,4c4.9,0,4.9-4,9.9-4c4.9,0,4.9,4,9.9,4c4.9,0,4.9-4,9.9-4  c4.9,0,4.9,4,9.9,4c4.9,0,4.9-4,9.9-4c4.9,0,4.9,4,9.9,4c4.9,0,4.9-4,9.9-4c4.9,0,4.9,4,9.9,4c4.9,0,4.9-4,9.9-4c4.9,0,4.9,4,9.9,4  c4.9,0,4.9-4,9.9-4c4.9,0,4.9,4,9.9,4c4.9,0,4.9-4,9.9-4c4.9,0,4.9,4,9.9,4c4.9,0,4.9-4,9.9-4c4.9,0,4.9,4,9.9,4c4.9,0,4.9-4,9.9-4  c4.9,0,4.9,4,9.9,4c4.9,0,4.9-4,9.9-4c4.9,0,4.9,4,9.9,4c4.9,0,4.9-4,9.8-4s4.9,4,9.9,4c4.9,0,4.9-4,9.9-4c4.9,0,4.9,4,9.9,4  c4.9,0,4.9-4,9.9-4c4.9,0,4.9,4,9.9,4c4.9,0,4.9-4,9.9-4c4.9,0,4.9,4,9.9,4c4.9,0,4.9-4,9.9-4c4.9,0,4.9,4,9.9,4c4.9,0,4.9-4,9.9-4  c4.9,0,4.9,4,9.9,4c4.9,0,4.9-4,9.9-4c4.9,0,4.9,4,9.9,4c4.9,0,4.9-4,9.9-4c4.9,0,4.9,4,9.9,4c4.9,0,4.9-4,9.9-4c4.9,0,4.9,4,9.9,4  c4.9,0,4.9-4,9.9-4c4.9,0,4.9,4,9.9,4c4.9,0,4.9-4,9.9-4s4.9,4,9.9,4"/>
</svg>